
<svg id="svg" version="1.1" xmlns="http://www.w3.org/2000/svg" xmlns:xlink="http://www.w3.org/1999/xlink" width="400" height="400" viewBox="0, 0, 400,400"><g id="svgg"><path id="path0" d="M194.900 0.263 C 194.405 0.369,194.000 0.590,194.000 0.753 C 194.000 0.917,193.370 1.298,192.600 1.600 C 191.830 1.902,191.200 2.296,191.200 2.475 C 191.200 2.654,190.840 2.800,190.400 2.800 C 189.960 2.800,189.600 2.980,189.600 3.200 C 189.600 3.420,189.240 3.600,188.800 3.600 C 188.360 3.600,188.000 3.780,188.000 4.000 C 188.000 4.220,187.680 4.400,187.288 4.400 C 186.897 4.400,186.317 4.760,186.000 5.200 C 185.683 5.640,185.103 6.000,184.712 6.000 C 184.320 6.000,184.000 6.180,184.000 6.400 C 184.000 6.620,183.640 6.800,183.200 6.800 C 182.742 6.800,182.400 7.067,182.400 7.424 C 182.400 7.767,182.219 7.935,181.997 7.798 C 181.776 7.661,181.491 7.819,181.364 8.149 C 181.237 8.479,180.897 8.659,180.608 8.548 C 180.319 8.437,179.823 8.717,179.506 9.171 C 179.188 9.624,178.820 9.886,178.687 9.754 C 178.406 9.473,176.183 10.956,174.942 12.254 C 174.470 12.747,173.971 13.038,173.833 12.899 C 173.695 12.761,173.306 13.042,172.968 13.524 C 172.631 14.006,172.077 14.400,171.738 14.400 C 170.888 14.400,168.740 16.775,169.078 17.341 C 169.239 17.609,169.087 17.584,168.712 17.281 C 168.218 16.880,168.003 16.871,167.774 17.242 C 167.573 17.568,167.646 17.619,168.000 17.400 C 168.339 17.190,168.427 17.233,168.249 17.521 C 168.098 17.765,167.710 17.864,167.387 17.740 C 167.016 17.597,166.800 17.759,166.800 18.181 C 166.800 18.547,166.620 18.736,166.400 18.600 C 166.180 18.464,166.000 18.513,166.000 18.709 C 166.000 18.905,165.505 19.320,164.900 19.632 C 163.547 20.330,162.000 21.810,162.000 22.405 C 162.000 22.648,161.820 22.736,161.600 22.600 C 161.380 22.464,161.200 22.644,161.200 23.000 C 161.200 23.356,161.063 23.563,160.896 23.459 C 160.426 23.169,159.088 24.295,159.366 24.746 C 159.502 24.965,159.402 25.275,159.145 25.434 C 158.852 25.615,158.784 25.550,158.962 25.262 C 159.119 25.008,159.057 24.800,158.824 24.800 C 158.591 24.800,158.400 24.968,158.400 25.173 C 158.400 25.378,158.040 25.660,157.600 25.800 C 157.160 25.940,156.800 26.232,156.800 26.451 C 156.800 26.669,157.008 26.719,157.262 26.562 C 157.541 26.389,157.615 26.452,157.449 26.721 C 157.298 26.965,156.879 27.052,156.518 26.913 C 156.012 26.719,155.924 26.825,156.135 27.375 C 156.321 27.860,156.247 28.030,155.905 27.904 C 155.454 27.738,153.575 29.274,153.593 29.793 C 153.597 29.907,153.507 29.997,153.393 29.993 C 152.976 29.978,151.311 31.809,151.476 32.100 C 151.570 32.265,151.356 32.400,151.000 32.400 C 150.644 32.400,150.464 32.580,150.600 32.800 C 150.736 33.020,150.567 33.200,150.224 33.200 C 149.881 33.200,149.600 33.481,149.600 33.824 C 149.600 34.167,149.420 34.336,149.200 34.200 C 148.980 34.064,148.800 34.244,148.800 34.600 C 148.800 34.956,148.665 35.173,148.500 35.082 C 148.104 34.863,144.787 38.254,145.095 38.562 C 145.226 38.693,145.102 38.800,144.819 38.800 C 144.197 38.800,142.015 41.201,142.006 41.895 C 141.997 42.589,140.726 44.000,140.111 44.000 C 139.830 44.000,139.600 44.276,139.600 44.613 C 139.600 44.949,139.285 45.344,138.900 45.490 C 137.903 45.868,137.110 46.731,137.372 47.155 C 137.495 47.354,137.315 47.624,136.972 47.755 C 136.630 47.887,136.439 48.139,136.548 48.316 C 136.658 48.493,136.582 48.900,136.380 49.219 C 136.110 49.645,136.011 49.662,136.006 49.282 C 136.003 48.983,135.577 49.187,135.000 49.764 C 134.450 50.314,134.000 50.929,134.000 51.132 C 134.000 51.334,133.370 52.187,132.600 53.028 C 131.830 53.869,131.200 54.693,131.200 54.860 C 131.200 55.027,130.750 55.614,130.200 56.164 C 129.650 56.714,129.200 57.542,129.200 58.005 C 129.200 58.468,129.020 58.736,128.800 58.600 C 128.580 58.464,128.400 58.627,128.400 58.962 C 128.400 59.298,128.035 59.767,127.589 60.006 C 127.143 60.245,126.872 60.592,126.986 60.778 C 127.101 60.964,126.940 61.214,126.628 61.334 C 126.316 61.454,125.756 62.193,125.385 62.976 C 125.013 63.759,124.530 64.400,124.312 64.400 C 124.093 64.400,124.012 64.654,124.131 64.964 C 124.252 65.279,123.918 65.850,123.374 66.259 C 122.838 66.661,122.400 67.267,122.400 67.607 C 122.400 67.946,122.040 68.483,121.600 68.800 C 121.160 69.117,120.800 69.697,120.800 70.088 C 120.800 70.480,120.640 70.800,120.443 70.800 C 120.101 70.800,119.404 72.696,119.530 73.286 C 119.563 73.443,119.323 73.468,118.995 73.343 C 118.584 73.185,118.400 73.375,118.400 73.957 C 118.400 74.421,118.220 74.800,118.000 74.800 C 117.780 74.800,117.600 75.070,117.600 75.400 C 117.600 75.730,117.409 76.000,117.176 76.000 C 116.943 76.000,116.865 76.181,117.002 76.403 C 117.139 76.624,116.969 76.914,116.625 77.046 C 116.281 77.178,116.000 77.536,116.000 77.843 C 116.000 78.149,115.820 78.400,115.600 78.400 C 115.380 78.400,115.200 78.760,115.200 79.200 C 115.200 79.640,115.041 80.000,114.847 80.000 C 114.652 80.000,114.390 80.315,114.264 80.700 C 114.138 81.085,113.580 82.165,113.024 83.100 C 112.373 84.193,112.188 84.810,112.506 84.827 C 112.778 84.842,112.595 85.049,112.100 85.288 C 111.605 85.527,111.200 86.055,111.200 86.461 C 111.200 86.868,110.999 87.200,110.753 87.200 C 110.497 87.200,110.385 87.611,110.491 88.163 C 110.631 88.895,110.532 89.072,110.078 88.898 C 109.604 88.716,109.536 88.889,109.748 89.737 C 109.931 90.466,109.866 90.773,109.541 90.703 C 109.280 90.646,108.890 91.185,108.675 91.900 C 108.460 92.615,108.130 93.200,107.942 93.200 C 107.754 93.200,107.600 93.560,107.600 94.000 C 107.600 94.440,107.420 94.800,107.200 94.800 C 106.980 94.800,106.800 95.160,106.800 95.600 C 106.800 96.040,106.620 96.400,106.400 96.400 C 106.180 96.400,106.000 96.760,106.000 97.200 C 106.000 97.640,105.820 98.000,105.600 98.000 C 105.380 98.000,105.200 98.345,105.200 98.767 C 105.200 99.188,104.975 99.638,104.700 99.767 C 104.308 99.950,104.314 100.052,104.728 100.243 C 105.120 100.423,105.043 100.634,104.428 101.065 C 103.973 101.384,103.600 102.085,103.600 102.623 C 103.600 103.160,103.420 103.600,103.200 103.600 C 102.980 103.600,102.800 103.960,102.800 104.400 C 102.800 104.840,102.601 105.200,102.357 105.200 C 102.114 105.200,102.016 105.465,102.141 105.789 C 102.266 106.116,102.063 106.549,101.687 106.759 C 101.313 106.969,101.133 107.266,101.288 107.421 C 101.442 107.576,101.126 108.495,100.584 109.465 C 100.043 110.435,99.600 111.582,99.600 112.014 C 99.600 112.446,99.420 112.800,99.200 112.800 C 98.980 112.800,98.800 113.149,98.800 113.576 C 98.800 114.003,98.620 114.464,98.400 114.600 C 98.180 114.736,98.000 115.287,98.000 115.824 C 98.000 116.361,97.809 116.800,97.576 116.800 C 97.343 116.800,97.244 116.948,97.356 117.129 C 97.468 117.309,97.295 117.967,96.972 118.589 C 96.649 119.212,96.492 120.058,96.622 120.471 C 96.780 120.968,96.682 121.183,96.330 121.110 C 95.979 121.037,95.801 121.422,95.803 122.250 C 95.805 123.140,95.650 123.440,95.263 123.292 C 94.847 123.132,94.764 123.420,94.911 124.511 C 95.060 125.611,94.977 125.889,94.552 125.726 C 94.172 125.580,94.000 125.832,94.000 126.534 C 94.000 127.094,93.812 127.669,93.582 127.811 C 93.351 127.954,93.246 128.595,93.347 129.237 C 93.448 129.879,93.379 130.311,93.194 130.196 C 93.009 130.082,92.755 130.351,92.629 130.794 C 92.503 131.237,92.291 131.983,92.157 132.450 C 91.996 133.016,92.062 133.209,92.357 133.026 C 92.616 132.867,92.800 133.040,92.800 133.443 C 92.800 133.823,92.683 134.016,92.540 133.873 C 92.396 133.730,92.042 133.925,91.752 134.306 C 91.124 135.133,91.039 135.747,91.600 135.400 C 91.820 135.264,92.000 135.343,92.000 135.576 C 92.000 135.809,91.820 136.000,91.600 136.000 C 91.380 136.000,91.200 136.450,91.200 137.000 C 91.200 137.550,91.043 138.000,90.850 138.000 C 90.658 138.000,90.500 138.488,90.500 139.083 C 90.500 139.679,90.298 140.234,90.050 140.317 C 89.803 140.399,89.600 141.082,89.600 141.833 C 89.600 142.585,89.420 143.200,89.200 143.200 C 88.980 143.200,88.800 143.819,88.800 144.576 C 88.800 145.333,88.620 146.064,88.400 146.200 C 88.180 146.336,88.000 147.056,88.000 147.800 C 88.000 148.544,87.848 149.247,87.661 149.362 C 87.475 149.477,87.306 150.143,87.286 150.841 C 87.267 151.539,87.059 152.301,86.825 152.535 C 86.237 153.123,86.290 153.709,86.900 153.365 C 87.300 153.139,87.300 153.190,86.900 153.621 C 86.625 153.918,86.400 154.574,86.400 155.080 C 86.400 155.586,86.220 156.000,86.000 156.000 C 85.780 156.000,85.600 156.810,85.600 157.800 C 85.600 158.790,85.456 159.600,85.279 159.600 C 85.103 159.600,84.941 160.235,84.919 161.012 C 84.897 161.788,84.692 162.649,84.463 162.924 C 84.235 163.199,84.058 164.185,84.071 165.114 C 84.084 166.044,83.904 167.034,83.671 167.314 C 83.438 167.595,83.259 168.622,83.272 169.596 C 83.286 170.571,83.095 171.435,82.848 171.517 C 82.585 171.605,82.400 172.641,82.400 174.033 C 82.400 175.335,82.246 176.400,82.057 176.400 C 81.868 176.400,81.704 177.504,81.693 178.854 C 81.682 180.203,81.481 181.426,81.246 181.572 C 81.001 181.723,80.830 183.101,80.846 184.805 C 80.863 186.622,80.704 187.832,80.437 187.921 C 79.829 188.124,79.886 189.999,80.500 190.006 C 80.855 190.010,80.870 190.097,80.550 190.306 C 80.302 190.468,80.083 191.474,80.063 192.542 C 80.044 193.611,79.855 194.693,79.643 194.948 C 79.432 195.203,79.248 197.280,79.234 199.563 C 79.221 201.847,78.988 204.329,78.717 205.079 C 78.303 206.223,78.319 206.504,78.812 206.816 C 79.145 207.026,79.200 207.190,78.938 207.194 C 78.602 207.198,78.467 209.979,78.442 217.400 L 78.408 227.600 199.919 227.600 L 321.430 227.600 321.506 216.557 C 321.556 209.299,321.434 205.238,321.152 204.710 C 320.912 204.262,320.743 202.032,320.770 199.682 C 320.801 197.054,320.657 195.359,320.390 195.194 C 320.142 195.040,319.947 193.466,319.929 191.464 C 319.911 189.559,319.740 188.000,319.549 188.000 C 319.357 188.000,319.200 186.661,319.200 185.024 C 319.200 183.387,319.020 181.936,318.800 181.800 C 318.580 181.664,318.400 180.471,318.400 179.148 C 318.400 177.660,318.194 176.537,317.859 176.202 C 317.501 175.844,317.366 174.965,317.460 173.606 C 317.550 172.302,317.456 171.642,317.201 171.799 C 316.824 172.032,316.605 170.391,316.783 168.676 C 316.825 168.278,316.659 167.712,316.415 167.419 C 316.172 167.125,315.956 166.052,315.935 165.035 C 315.915 164.017,315.741 163.087,315.549 162.969 C 315.357 162.850,315.200 162.043,315.200 161.176 C 315.200 160.309,315.020 159.600,314.800 159.600 C 314.580 159.600,314.400 158.790,314.400 157.800 C 314.400 156.810,314.220 156.000,314.000 156.000 C 313.780 156.000,313.600 155.295,313.600 154.433 C 313.600 153.572,313.416 152.805,313.191 152.730 C 312.967 152.656,312.757 151.913,312.726 151.080 C 312.695 150.248,312.519 149.473,312.335 149.360 C 312.151 149.246,312.000 148.544,312.000 147.800 C 312.000 147.056,311.820 146.336,311.600 146.200 C 311.380 146.064,311.200 145.333,311.200 144.576 C 311.200 143.819,311.020 143.200,310.800 143.200 C 310.580 143.200,310.400 142.829,310.400 142.376 C 310.400 141.824,310.235 141.652,309.900 141.853 C 309.612 142.026,309.654 141.839,310.000 141.412 C 310.458 140.846,310.481 140.630,310.100 140.502 C 309.825 140.409,309.600 139.823,309.600 139.200 C 309.600 138.577,309.398 137.999,309.150 137.917 C 308.903 137.834,308.714 137.234,308.731 136.583 C 308.761 135.425,307.085 129.280,306.364 127.905 C 306.164 127.523,306.000 126.868,306.000 126.448 C 306.000 126.029,305.752 125.591,305.449 125.474 C 305.100 125.340,304.971 124.887,305.096 124.232 C 305.213 123.621,305.111 123.200,304.847 123.200 C 304.601 123.200,304.400 122.744,304.400 122.187 C 304.400 121.631,304.120 121.067,303.777 120.936 C 303.434 120.804,303.244 120.463,303.353 120.178 C 303.643 119.423,302.701 117.612,302.000 117.575 C 301.598 117.554,301.664 117.430,302.200 117.200 C 302.640 117.011,302.775 116.844,302.500 116.828 C 302.225 116.813,302.000 116.361,302.000 115.824 C 302.000 115.287,301.820 114.736,301.600 114.600 C 301.380 114.464,301.200 114.003,301.200 113.576 C 301.200 113.149,301.020 112.800,300.800 112.800 C 300.580 112.800,300.400 112.445,300.400 112.012 C 300.400 111.257,299.217 108.833,298.257 107.623 C 297.905 107.179,297.915 107.116,298.300 107.347 C 298.575 107.512,298.800 107.457,298.800 107.224 C 298.800 106.991,298.620 106.800,298.400 106.800 C 298.180 106.800,298.000 106.440,298.000 106.000 C 298.000 105.560,297.820 105.200,297.600 105.200 C 297.380 105.200,297.200 104.840,297.200 104.400 C 297.200 103.960,297.020 103.600,296.800 103.600 C 296.580 103.600,296.400 103.161,296.400 102.624 C 296.400 102.087,296.220 101.536,296.000 101.400 C 295.780 101.264,295.600 100.803,295.600 100.376 C 295.600 99.949,295.420 99.600,295.200 99.600 C 294.980 99.600,294.800 99.240,294.800 98.800 C 294.800 98.360,294.620 98.000,294.400 98.000 C 294.180 98.000,294.000 97.640,294.000 97.200 C 294.000 96.760,293.820 96.400,293.600 96.400 C 293.380 96.400,293.200 96.040,293.200 95.600 C 293.200 95.160,293.020 94.800,292.800 94.800 C 292.580 94.800,292.400 94.440,292.400 94.000 C 292.400 93.560,292.228 93.200,292.018 93.200 C 291.808 93.200,291.518 92.570,291.374 91.800 C 291.229 91.030,290.951 90.400,290.755 90.400 C 290.560 90.400,290.400 90.040,290.400 89.600 C 290.400 89.160,290.220 88.800,290.000 88.800 C 289.780 88.800,289.600 88.440,289.600 88.000 C 289.600 87.560,289.420 87.200,289.200 87.200 C 288.980 87.200,288.800 86.840,288.800 86.400 C 288.800 85.960,288.620 85.600,288.400 85.600 C 288.180 85.600,288.000 85.319,288.000 84.976 C 288.000 84.633,287.857 84.441,287.683 84.549 C 287.509 84.656,287.340 84.395,287.308 83.969 C 287.275 83.542,286.878 82.671,286.425 82.035 C 285.971 81.398,285.600 80.679,285.600 80.438 C 285.600 80.197,285.420 80.000,285.200 80.000 C 284.980 80.000,284.800 79.640,284.800 79.200 C 284.800 78.760,284.620 78.400,284.400 78.400 C 284.180 78.400,284.000 78.130,284.000 77.800 C 284.000 77.470,283.820 77.200,283.600 77.200 C 283.380 77.200,283.200 76.930,283.200 76.600 C 283.200 76.270,283.020 76.000,282.800 76.000 C 282.580 76.000,282.400 75.730,282.400 75.400 C 282.400 75.070,282.220 74.800,282.000 74.800 C 281.780 74.800,281.600 74.530,281.600 74.200 C 281.600 73.870,281.240 73.240,280.800 72.800 C 280.360 72.360,280.000 71.730,280.000 71.400 C 280.000 71.070,279.820 70.800,279.600 70.800 C 279.380 70.800,279.200 70.480,279.200 70.088 C 279.200 69.697,278.840 69.117,278.400 68.800 C 277.960 68.483,277.600 67.946,277.600 67.607 C 277.600 67.267,277.153 66.654,276.608 66.245 C 276.062 65.835,275.711 65.344,275.828 65.155 C 275.945 64.965,275.848 64.583,275.612 64.305 C 275.376 64.027,274.424 62.647,273.496 61.238 C 272.568 59.828,271.505 58.596,271.132 58.498 C 270.760 58.401,270.549 58.077,270.664 57.778 C 270.778 57.480,270.406 56.769,269.836 56.200 C 269.266 55.630,268.800 55.019,268.800 54.843 C 268.800 54.313,267.341 52.800,266.829 52.800 C 266.567 52.800,266.464 52.620,266.600 52.400 C 266.736 52.180,266.657 52.000,266.424 52.000 C 266.191 52.000,266.000 51.730,266.000 51.400 C 266.000 51.071,265.280 50.059,264.400 49.152 C 263.520 48.245,262.800 47.337,262.800 47.134 C 262.800 46.585,260.924 44.809,260.642 45.091 C 260.509 45.224,260.400 45.110,260.400 44.838 C 260.400 44.566,260.130 44.073,259.800 43.743 C 259.470 43.413,259.200 43.252,259.200 43.386 C 259.200 43.519,258.778 43.217,258.261 42.714 C 257.745 42.211,257.483 41.694,257.680 41.565 C 257.877 41.435,257.725 41.075,257.342 40.765 C 256.749 40.283,256.696 40.283,256.985 40.762 C 257.217 41.146,257.176 41.232,256.855 41.034 C 256.598 40.875,256.488 40.582,256.611 40.382 C 256.876 39.954,251.783 34.750,251.437 35.096 C 251.307 35.227,251.200 35.023,251.200 34.643 C 251.200 34.263,251.020 34.064,250.800 34.200 C 250.580 34.336,250.400 34.167,250.400 33.824 C 250.400 33.481,250.119 33.200,249.776 33.200 C 249.433 33.200,249.264 33.020,249.400 32.800 C 249.536 32.580,249.337 32.400,248.957 32.400 C 248.577 32.400,248.378 32.289,248.514 32.152 C 248.836 31.831,247.805 30.800,247.162 30.800 C 246.890 30.800,246.774 30.693,246.904 30.562 C 247.348 30.119,242.868 25.999,242.215 26.249 C 241.797 26.410,241.600 26.246,241.600 25.738 C 241.600 25.326,241.116 24.632,240.525 24.195 C 239.934 23.758,238.892 22.847,238.210 22.172 C 237.528 21.496,236.752 21.016,236.485 21.105 C 236.213 21.196,236.088 21.032,236.200 20.733 C 236.314 20.430,235.969 20.001,235.400 19.737 C 234.749 19.436,234.491 19.423,234.661 19.699 C 234.816 19.949,234.733 20.006,234.462 19.838 C 234.208 19.681,234.000 19.375,234.000 19.158 C 234.000 18.613,232.139 16.800,231.579 16.800 C 231.327 16.800,230.607 16.250,229.980 15.578 C 229.352 14.906,228.571 14.411,228.245 14.478 C 227.919 14.545,227.652 14.451,227.653 14.270 C 227.653 13.501,225.653 12.202,224.700 12.353 C 224.535 12.379,224.445 12.175,224.500 11.900 C 224.562 11.591,224.255 11.448,223.700 11.525 C 223.205 11.594,222.800 11.448,222.800 11.202 C 222.800 10.955,222.980 10.864,223.200 11.000 C 223.420 11.136,223.600 11.162,223.600 11.058 C 223.600 10.680,219.547 8.386,219.228 8.583 C 219.048 8.694,218.565 8.338,218.155 7.792 C 217.746 7.247,217.093 6.800,216.705 6.800 C 216.317 6.800,216.000 6.620,216.000 6.400 C 216.000 6.180,215.640 6.000,215.200 6.000 C 214.760 6.000,214.400 5.809,214.400 5.576 C 214.400 5.343,214.220 5.264,214.000 5.400 C 213.780 5.536,213.600 5.367,213.600 5.024 C 213.600 4.667,213.258 4.400,212.800 4.400 C 212.360 4.400,212.000 4.220,212.000 4.000 C 212.000 3.780,211.640 3.600,211.200 3.600 C 210.760 3.600,210.400 3.420,210.400 3.200 C 210.400 2.980,210.040 2.800,209.600 2.800 C 209.160 2.800,208.800 2.609,208.800 2.376 C 208.800 2.143,208.619 2.065,208.397 2.202 C 208.176 2.339,207.882 2.159,207.746 1.802 C 207.609 1.446,207.255 1.247,206.959 1.360 C 206.663 1.474,206.249 1.259,206.039 0.883 C 205.656 0.199,197.358 -0.263,194.900 0.263 M199.425 80.360 C 199.298 80.566,201.129 80.719,203.687 80.717 C 206.613 80.715,208.223 80.868,208.319 81.157 C 208.400 81.401,209.262 81.600,210.233 81.600 C 211.205 81.600,212.000 81.780,212.000 82.000 C 212.000 82.220,212.619 82.400,213.376 82.400 C 214.133 82.400,214.864 82.580,215.000 82.800 C 215.136 83.020,215.676 83.200,216.200 83.200 C 216.724 83.200,217.264 83.380,217.400 83.600 C 217.536 83.820,217.997 84.000,218.424 84.000 C 218.851 84.000,219.200 84.158,219.200 84.350 C 219.200 84.543,219.785 84.835,220.500 85.001 C 221.215 85.167,222.021 85.353,222.292 85.414 C 222.563 85.476,223.070 85.813,223.421 86.163 C 223.771 86.514,224.211 86.800,224.400 86.800 C 224.589 86.800,224.981 87.025,225.271 87.300 C 225.562 87.575,226.340 88.070,227.000 88.399 C 227.660 88.729,228.290 89.103,228.400 89.230 C 228.995 89.916,231.782 91.535,232.067 91.359 C 232.250 91.245,232.400 91.356,232.400 91.605 C 232.400 92.164,232.994 92.751,234.800 93.976 C 236.568 95.175,237.645 96.300,238.368 97.700 C 238.680 98.305,239.095 98.800,239.291 98.800 C 239.487 98.800,239.519 98.592,239.362 98.338 C 239.184 98.050,239.252 97.985,239.545 98.166 C 239.802 98.325,239.906 98.628,239.776 98.839 C 239.646 99.050,240.130 99.774,240.852 100.448 C 241.573 101.122,242.199 101.914,242.242 102.207 C 242.285 102.500,242.878 103.551,243.560 104.542 C 244.242 105.533,244.800 106.460,244.800 106.601 C 244.800 106.742,245.025 107.108,245.300 107.415 C 246.217 108.437,246.599 109.026,246.727 109.616 C 246.797 109.937,247.112 110.723,247.427 111.361 C 247.742 112.000,248.000 112.746,248.000 113.019 C 248.000 113.291,248.281 113.622,248.625 113.754 C 248.969 113.886,249.159 114.143,249.047 114.324 C 248.831 114.673,249.662 117.396,250.126 117.859 C 250.277 118.010,250.400 118.718,250.400 119.433 C 250.400 120.148,250.611 120.804,250.869 120.890 C 251.142 120.981,251.310 121.743,251.271 122.723 C 251.235 123.645,251.384 124.400,251.603 124.400 C 251.836 124.400,252.000 125.857,252.000 127.920 C 252.000 130.182,252.179 131.633,252.500 131.979 C 252.835 132.340,252.844 132.430,252.529 132.253 C 252.178 132.056,252.057 133.274,252.057 137.019 C 252.057 140.329,251.894 142.246,251.580 142.625 C 251.317 142.941,251.239 143.200,251.406 143.200 C 251.573 143.200,251.235 143.675,250.655 144.255 C 250.075 144.835,249.600 145.512,249.600 145.760 C 249.600 146.008,248.880 146.656,248.000 147.200 C 247.120 147.744,246.400 148.400,246.400 148.657 C 246.400 148.936,246.060 149.036,245.559 148.905 C 245.097 148.784,244.589 148.894,244.432 149.148 C 244.017 149.819,155.986 149.824,155.571 149.153 C 155.412 148.896,154.903 148.784,154.441 148.905 C 153.860 149.057,153.600 148.938,153.600 148.520 C 153.600 148.148,153.370 148.003,153.005 148.143 C 152.661 148.275,152.450 148.166,152.505 147.886 C 152.557 147.619,152.287 147.425,151.904 147.455 C 151.522 147.485,151.300 147.361,151.413 147.179 C 151.525 146.998,151.388 146.703,151.108 146.525 C 150.828 146.346,150.345 145.708,150.035 145.107 C 149.725 144.505,149.141 143.908,148.736 143.780 C 148.331 143.651,148.000 143.368,148.000 143.149 C 148.000 142.931,148.225 142.888,148.500 143.053 C 148.787 143.226,148.745 143.039,148.400 142.615 C 147.693 141.745,147.631 124.876,148.333 124.441 C 148.546 124.308,148.721 123.486,148.720 122.613 C 148.720 121.741,148.918 120.961,149.160 120.880 C 149.402 120.799,149.600 120.129,149.600 119.390 C 149.600 118.652,149.744 117.958,149.921 117.849 C 150.097 117.740,150.490 116.739,150.793 115.625 C 151.096 114.511,151.492 113.600,151.672 113.600 C 151.853 113.600,152.000 113.379,152.000 113.109 C 152.000 112.347,154.501 107.200,154.871 107.200 C 155.052 107.200,155.200 107.014,155.200 106.787 C 155.200 106.561,156.010 105.167,157.000 103.692 C 157.990 102.216,158.800 100.752,158.800 100.438 C 158.800 100.124,158.909 99.976,159.042 100.109 C 159.176 100.242,159.735 99.902,160.285 99.352 C 160.835 98.802,161.189 98.256,161.073 98.139 C 160.956 98.023,161.477 97.329,162.230 96.597 C 162.984 95.865,163.600 95.061,163.600 94.810 C 163.600 94.558,163.780 94.464,164.000 94.600 C 164.220 94.736,164.400 94.657,164.400 94.424 C 164.400 94.191,164.678 94.000,165.018 94.000 C 165.792 94.000,167.846 92.013,167.118 91.968 C 166.833 91.951,167.140 91.745,167.800 91.511 C 168.868 91.133,171.064 89.808,171.600 89.219 C 171.710 89.098,172.340 88.732,173.000 88.405 C 173.660 88.078,174.586 87.415,175.058 86.930 C 175.530 86.446,176.008 86.141,176.120 86.253 C 176.232 86.366,176.687 86.147,177.130 85.767 C 177.574 85.387,178.523 85.012,179.239 84.934 C 180.827 84.760,181.166 84.478,180.388 83.979 C 179.983 83.719,180.189 83.676,181.051 83.841 C 181.786 83.982,182.415 83.899,182.575 83.640 C 182.725 83.398,183.276 83.200,183.800 83.200 C 184.324 83.200,184.864 83.020,185.000 82.800 C 185.136 82.580,185.867 82.400,186.624 82.400 C 187.381 82.400,188.000 82.220,188.000 82.000 C 188.000 81.780,188.795 81.600,189.767 81.600 C 190.738 81.600,191.594 81.417,191.669 81.194 C 191.745 80.966,193.346 80.763,195.317 80.732 C 197.249 80.701,198.924 80.523,199.039 80.338 C 199.153 80.152,199.337 80.000,199.447 80.000 C 199.557 80.000,199.547 80.162,199.425 80.360 M192.800 103.223 C 192.800 103.430,192.260 103.600,191.600 103.600 C 190.940 103.600,190.400 103.780,190.400 104.000 C 190.400 104.220,189.860 104.400,189.200 104.400 C 188.540 104.400,188.000 104.580,188.000 104.800 C 188.000 105.020,187.659 105.200,187.243 105.200 C 186.826 105.200,186.383 105.467,186.258 105.793 C 186.128 106.131,185.765 106.285,185.415 106.150 C 185.077 106.021,184.800 106.114,184.800 106.357 C 184.800 106.601,184.517 106.800,184.171 106.800 C 183.538 106.800,182.059 107.992,182.671 108.009 C 182.852 108.014,182.280 108.353,181.400 108.762 C 179.483 109.654,176.192 112.940,176.583 113.573 C 176.741 113.828,176.632 113.973,176.330 113.910 C 176.037 113.849,175.825 114.111,175.855 114.496 C 175.885 114.878,175.782 115.113,175.626 115.016 C 175.160 114.728,173.926 116.430,174.159 117.038 C 174.284 117.363,174.128 117.600,173.787 117.600 C 173.464 117.600,173.200 117.960,173.200 118.400 C 173.200 118.840,173.001 119.200,172.757 119.200 C 172.514 119.200,172.421 119.477,172.550 119.815 C 172.685 120.165,172.531 120.528,172.193 120.658 C 171.867 120.783,171.600 121.057,171.600 121.266 C 171.600 121.476,171.825 121.520,172.100 121.365 C 172.500 121.139,172.500 121.190,172.100 121.621 C 171.825 121.918,171.600 122.495,171.600 122.904 C 171.600 123.313,171.420 123.536,171.200 123.400 C 170.967 123.256,170.800 123.663,170.800 124.376 C 170.800 125.049,170.620 125.600,170.400 125.600 C 170.180 125.600,170.000 126.050,170.000 126.600 L 170.000 127.600 200.000 127.600 L 230.000 127.600 230.000 126.600 C 230.000 126.050,229.820 125.600,229.600 125.600 C 229.380 125.600,229.200 125.049,229.200 124.376 C 229.200 123.663,229.033 123.256,228.800 123.400 C 228.563 123.547,228.400 123.085,228.400 122.266 C 228.400 121.415,228.173 120.798,227.807 120.658 C 227.469 120.528,227.315 120.165,227.450 119.815 C 227.579 119.477,227.486 119.200,227.243 119.200 C 226.999 119.200,226.800 118.840,226.800 118.400 C 226.800 117.960,226.620 117.600,226.400 117.600 C 226.180 117.600,226.000 117.317,226.000 116.971 C 226.000 116.626,225.775 116.108,225.500 115.820 C 225.225 115.533,224.742 114.926,224.427 114.470 C 224.112 114.015,223.709 113.733,223.532 113.842 C 223.354 113.952,223.306 113.790,223.424 113.482 C 223.656 112.877,219.111 108.400,218.266 108.400 C 217.997 108.400,217.517 108.040,217.200 107.600 C 216.883 107.160,216.303 106.800,215.912 106.800 C 215.520 106.800,215.200 106.620,215.200 106.400 C 215.200 106.180,214.840 106.000,214.400 106.000 C 213.960 106.000,213.600 105.820,213.600 105.600 C 213.600 105.380,213.240 105.200,212.800 105.200 C 212.360 105.200,212.000 105.020,212.000 104.800 C 212.000 104.580,211.460 104.400,210.800 104.400 C 210.140 104.400,209.600 104.220,209.600 104.000 C 209.600 103.780,209.060 103.600,208.400 103.600 C 207.740 103.600,207.200 103.418,207.200 103.197 C 207.200 102.939,204.591 102.803,200.000 102.820 C 195.782 102.835,192.800 103.003,192.800 103.223 M7.758 125.668 C 7.562 125.985,7.689 126.051,8.155 125.873 C 8.595 125.704,8.746 125.764,8.574 126.042 C 8.427 126.280,7.834 126.385,7.257 126.275 C 6.189 126.071,5.044 126.499,4.080 127.463 C 3.730 127.812,3.701 128.000,3.995 128.000 C 4.244 128.000,4.341 128.172,4.211 128.383 C 4.081 128.593,3.681 128.652,3.322 128.515 C 2.885 128.347,2.765 128.419,2.958 128.732 C 3.117 128.989,3.033 129.200,2.770 129.200 C 2.220 129.200,0.398 131.204,0.407 131.800 C 0.410 132.020,0.587 131.930,0.800 131.600 C 1.013 131.270,1.191 131.203,1.194 131.451 C 1.197 131.699,0.930 132.126,0.600 132.400 C 0.074 132.837,0.000 138.003,0.000 174.449 L 0.000 216.000 27.520 216.000 C 47.194 216.000,55.167 216.127,55.485 216.445 C 56.512 217.472,56.780 216.268,56.775 210.648 C 56.772 207.422,56.963 204.422,57.213 203.765 C 57.457 203.125,57.608 201.070,57.550 199.200 C 57.492 197.330,57.581 195.350,57.748 194.800 C 57.978 194.046,57.949 193.947,57.632 194.400 C 57.270 194.917,57.211 194.903,57.206 194.300 C 57.203 193.915,57.470 193.600,57.800 193.600 C 58.274 193.600,58.409 192.991,58.445 190.700 C 58.529 185.220,58.802 181.480,59.148 181.040 C 59.339 180.798,59.526 179.437,59.563 178.015 C 59.599 176.593,59.788 175.331,59.981 175.212 C 60.175 175.092,60.333 174.115,60.333 173.041 C 60.333 171.967,60.486 170.979,60.672 170.844 C 60.858 170.710,61.063 169.614,61.128 168.409 C 61.193 167.204,61.461 166.082,61.723 165.915 C 62.062 165.700,62.026 165.609,61.600 165.600 C 61.239 165.593,61.163 165.471,61.409 165.294 C 61.633 165.132,61.875 164.370,61.946 163.600 C 62.016 162.830,62.237 162.140,62.437 162.067 C 62.637 161.993,62.800 161.048,62.800 159.967 C 62.800 158.885,62.980 158.000,63.200 158.000 C 63.420 158.000,63.600 157.190,63.600 156.200 C 63.600 155.210,63.780 154.400,64.000 154.400 C 64.220 154.400,64.400 153.691,64.400 152.824 C 64.400 151.957,64.580 151.136,64.800 151.000 C 65.020 150.864,65.200 150.054,65.200 149.200 C 65.200 148.346,65.380 147.536,65.600 147.400 C 65.820 147.264,66.000 146.544,66.000 145.800 C 66.000 145.056,66.180 144.336,66.400 144.200 C 66.620 144.064,66.800 143.434,66.800 142.800 C 66.800 142.166,66.978 141.537,67.196 141.402 C 67.985 140.915,67.547 138.000,66.685 138.000 C 66.000 138.000,65.971 138.085,66.451 138.677 C 66.897 139.227,66.899 139.293,66.462 139.030 C 65.926 138.707,64.272 139.355,63.304 140.268 C 62.908 140.640,62.908 140.777,63.304 140.936 C 63.577 141.047,63.395 141.151,62.900 141.168 C 62.405 141.186,62.000 141.434,62.000 141.720 C 62.000 142.005,61.370 142.467,60.600 142.746 C 59.830 143.024,59.200 143.521,59.200 143.849 C 59.200 144.178,59.039 144.348,58.842 144.226 C 58.645 144.104,58.384 144.264,58.262 144.581 C 58.141 144.899,57.456 145.461,56.740 145.831 C 54.946 146.759,54.256 147.475,54.904 147.736 C 55.177 147.847,54.984 147.951,54.476 147.968 C 53.968 147.986,53.664 148.180,53.800 148.400 C 53.936 148.620,53.703 148.800,53.283 148.800 C 52.437 148.800,49.863 151.055,50.161 151.536 C 50.264 151.703,49.981 152.069,49.532 152.349 C 49.083 152.630,48.825 152.683,48.959 152.467 C 49.092 152.251,48.751 152.283,48.200 152.537 C 47.646 152.793,47.287 153.233,47.395 153.521 C 47.503 153.807,47.408 153.928,47.184 153.790 C 46.961 153.652,46.261 154.093,45.628 154.770 C 44.996 155.446,44.271 156.000,44.016 156.000 C 43.761 156.000,43.664 156.180,43.800 156.400 C 43.936 156.620,43.789 156.800,43.473 156.800 C 43.157 156.800,42.651 157.105,42.349 157.477 C 41.976 157.937,41.960 158.057,42.300 157.853 C 42.575 157.688,42.800 157.645,42.800 157.758 C 42.800 157.870,42.035 158.302,41.100 158.717 C 40.165 159.132,38.743 160.130,37.940 160.936 C 37.137 161.741,36.287 162.400,36.051 162.400 C 35.814 162.400,34.811 163.210,33.821 164.200 C 32.831 165.190,31.830 166.000,31.597 166.000 C 31.059 166.000,28.400 168.640,28.400 169.174 C 28.400 169.395,28.130 169.471,27.800 169.345 C 27.256 169.136,27.002 169.608,27.163 170.530 C 27.194 170.711,27.022 170.737,26.779 170.587 C 26.537 170.437,25.998 170.681,25.581 171.128 C 25.044 171.705,24.966 171.999,25.312 172.139 C 25.580 172.248,25.395 172.351,24.900 172.368 L 24.000 172.400 23.954 153.700 C 23.929 143.415,23.935 134.717,23.967 134.371 C 24.048 133.516,22.990 131.543,22.639 131.894 C 22.485 132.049,22.468 131.889,22.602 131.538 C 22.913 130.729,19.020 126.617,18.340 127.037 C 18.063 127.208,17.984 127.149,18.144 126.891 C 18.419 126.446,16.914 125.753,16.522 126.144 C 16.403 126.264,16.043 126.100,15.724 125.781 C 14.985 125.042,8.204 124.946,7.758 125.668 M384.232 125.826 C 383.888 126.170,383.441 126.349,383.239 126.224 C 382.680 125.878,381.569 126.427,381.864 126.904 C 382.016 127.150,381.931 127.205,381.660 127.037 C 380.906 126.571,376.819 130.997,377.300 131.758 C 377.355 131.845,377.102 132.250,376.737 132.658 C 376.141 133.325,376.069 135.353,376.018 152.785 C 375.988 163.448,375.896 172.238,375.814 172.320 C 375.732 172.401,374.952 171.733,374.079 170.834 C 373.207 169.935,372.293 169.200,372.047 169.200 C 371.801 169.200,371.600 169.009,371.600 168.776 C 371.600 168.543,371.420 168.464,371.200 168.600 C 370.980 168.736,370.800 168.648,370.800 168.405 C 370.800 167.879,368.989 166.000,368.482 166.000 C 368.287 166.000,367.270 165.190,366.222 164.200 C 365.174 163.210,364.174 162.400,364.000 162.400 C 363.827 162.400,363.107 161.861,362.402 161.202 C 361.696 160.542,360.929 160.120,360.698 160.263 C 360.458 160.411,360.394 160.333,360.549 160.082 C 360.701 159.837,360.416 159.429,359.911 159.166 C 359.410 158.905,358.707 158.401,358.349 158.046 C 357.247 156.952,356.006 156.000,355.684 156.000 C 355.515 156.000,355.124 155.650,354.815 155.221 C 354.507 154.793,354.107 154.534,353.927 154.645 C 353.747 154.756,353.600 154.644,353.600 154.395 C 353.600 153.834,352.436 152.631,352.160 152.906 C 352.049 153.017,350.958 152.139,349.735 150.954 C 348.512 149.769,347.261 148.800,346.955 148.800 C 346.650 148.800,346.400 148.620,346.400 148.400 C 346.400 148.180,345.995 147.986,345.500 147.968 C 345.005 147.951,344.833 147.844,345.117 147.729 C 345.779 147.464,343.689 145.601,342.727 145.600 C 342.357 145.600,341.937 145.233,341.795 144.785 C 341.653 144.336,340.786 143.484,339.868 142.890 C 338.951 142.297,337.909 141.494,337.553 141.106 C 336.830 140.316,336.197 140.148,336.638 140.862 C 336.811 141.141,336.748 141.215,336.479 141.049 C 336.235 140.898,336.148 140.481,336.285 140.122 C 336.454 139.683,336.381 139.564,336.065 139.760 C 335.798 139.925,335.491 139.781,335.354 139.425 C 335.222 139.081,334.864 138.800,334.557 138.800 C 334.251 138.800,334.000 138.620,334.000 138.400 C 334.000 138.180,333.634 138.000,333.186 138.000 C 332.496 138.000,332.437 138.122,332.800 138.800 C 333.090 139.342,333.095 139.600,332.814 139.600 C 332.283 139.600,332.272 141.074,332.800 141.400 C 333.020 141.536,333.200 142.166,333.200 142.800 C 333.200 143.434,333.380 144.064,333.600 144.200 C 333.820 144.336,334.000 145.056,334.000 145.800 C 334.000 146.544,334.180 147.264,334.400 147.400 C 334.620 147.536,334.800 148.321,334.800 149.144 C 334.800 149.967,335.008 150.848,335.261 151.101 C 335.515 151.355,335.706 152.152,335.686 152.873 C 335.665 153.593,335.772 154.277,335.924 154.391 C 336.358 154.720,337.176 157.232,336.766 156.979 C 336.565 156.855,336.400 157.018,336.400 157.343 C 336.400 157.668,336.595 157.998,336.833 158.078 C 337.072 158.157,337.267 159.072,337.267 160.111 C 337.267 161.150,337.432 162.000,337.633 162.000 C 337.835 162.000,338.000 162.900,338.000 164.000 C 338.000 165.100,338.180 166.000,338.400 166.000 C 338.622 166.000,338.800 167.056,338.800 168.367 C 338.800 169.668,338.982 170.794,339.205 170.868 C 339.428 170.943,339.631 171.948,339.657 173.102 C 339.683 174.256,339.861 175.200,340.052 175.200 C 340.244 175.200,340.400 176.449,340.400 177.976 C 340.400 179.503,340.580 180.864,340.800 181.000 C 341.020 181.136,341.200 182.304,341.200 183.595 C 341.200 186.777,341.975 192.137,342.480 192.450 C 342.736 192.608,342.685 192.785,342.345 192.920 C 341.958 193.074,341.945 193.146,342.300 193.168 C 342.575 193.186,342.800 193.391,342.800 193.624 C 342.800 193.857,342.620 193.936,342.400 193.800 C 342.180 193.664,342.000 193.833,342.000 194.176 C 342.000 194.519,342.166 194.800,342.368 194.800 C 342.581 194.800,342.643 196.365,342.513 198.529 C 342.363 201.053,342.457 202.762,342.806 203.818 C 343.110 204.741,343.348 207.665,343.387 210.965 C 343.449 216.200,343.783 217.722,344.587 216.421 C 344.765 216.133,353.549 216.000,372.424 216.000 L 400.000 216.000 400.000 174.461 C 400.000 133.943,399.981 132.900,399.225 132.029 C 398.799 131.537,398.548 130.880,398.668 130.568 C 398.805 130.209,398.624 130.000,398.176 130.000 C 397.786 130.000,397.575 129.892,397.707 129.760 C 398.503 128.964,394.220 125.993,392.696 126.284 C 392.004 126.416,391.600 126.320,391.600 126.023 C 391.600 125.764,391.808 125.681,392.062 125.838 C 392.348 126.015,392.415 125.948,392.238 125.662 C 391.775 124.913,385.006 125.051,384.232 125.826 M0.086 259.567 L 0.200 280.333 1.100 281.114 C 1.595 281.543,2.000 282.070,2.000 282.285 C 2.000 282.877,3.378 284.000,4.105 284.000 C 4.457 284.000,4.866 284.376,5.012 284.837 C 5.191 285.401,5.516 285.611,6.013 285.481 C 6.417 285.375,6.840 285.527,6.952 285.819 C 7.077 286.146,7.782 286.342,8.780 286.328 C 9.673 286.316,10.648 286.508,10.947 286.756 C 11.339 287.081,18.350 287.178,36.245 287.103 L 61.000 287.000 61.124 285.500 C 61.196 284.632,61.070 284.000,60.824 284.000 C 60.569 284.000,60.400 282.975,60.400 281.433 C 60.400 279.873,60.222 278.807,59.946 278.715 C 59.668 278.623,59.512 277.673,59.544 276.282 C 59.573 274.999,59.422 274.000,59.198 274.000 C 58.972 274.000,58.800 272.799,58.800 271.224 C 58.800 269.697,58.620 268.336,58.400 268.200 C 58.180 268.064,58.003 267.738,58.006 267.476 C 58.011 267.133,58.103 267.142,58.335 267.508 C 58.807 268.252,58.377 261.141,57.895 260.220 C 57.670 259.791,57.516 257.672,57.552 255.511 C 57.589 253.350,57.429 251.228,57.198 250.795 C 56.963 250.357,56.770 247.528,56.761 244.405 L 56.746 238.800 28.359 238.800 L -0.027 238.800 0.086 259.567 M343.334 243.992 C 343.298 246.846,343.052 249.835,342.789 250.634 C 342.454 251.649,342.396 253.474,342.597 256.693 C 342.789 259.754,342.750 261.216,342.483 261.051 C 342.245 260.904,342.074 261.335,342.065 262.101 C 342.056 262.816,341.879 264.300,341.670 265.400 C 341.462 266.500,341.261 268.840,341.224 270.600 C 341.187 272.360,340.987 273.860,340.778 273.933 C 340.570 274.007,340.400 275.232,340.400 276.657 C 340.400 278.082,340.249 279.154,340.065 279.040 C 339.881 278.926,339.690 279.947,339.641 281.308 C 339.592 282.669,339.369 283.896,339.146 284.033 C 338.923 284.171,338.799 284.895,338.870 285.642 L 339.000 287.000 363.755 287.103 C 381.650 287.178,388.661 287.081,389.053 286.756 C 389.352 286.508,390.313 286.316,391.190 286.328 C 392.067 286.340,392.888 286.181,393.016 285.975 C 393.143 285.769,393.530 285.600,393.877 285.600 C 394.223 285.600,394.800 285.285,395.159 284.900 C 395.518 284.515,396.157 284.008,396.579 283.773 C 397.001 283.539,397.539 283.001,397.773 282.579 C 398.008 282.157,398.560 281.479,399.000 281.072 C 399.777 280.354,399.803 279.744,399.914 259.567 L 400.027 238.800 371.714 238.801 L 343.400 238.802 343.334 243.992 M79.235 253.686 C 79.231 256.456,79.386 257.870,79.715 258.079 C 80.091 258.318,80.087 258.389,79.700 258.394 C 79.058 258.402,79.045 259.482,79.685 259.695 C 80.020 259.807,80.139 260.813,80.071 262.971 C 80.011 264.857,80.152 266.301,80.428 266.634 C 80.679 266.936,80.897 268.447,80.913 269.992 C 80.929 271.536,81.090 272.800,81.271 272.800 C 81.452 272.800,81.600 274.045,81.600 275.567 C 81.600 277.088,81.782 278.394,82.005 278.468 C 82.228 278.543,82.431 279.552,82.457 280.710 C 82.484 281.869,82.661 282.914,82.852 283.032 C 83.044 283.151,83.200 284.115,83.200 285.175 C 83.200 286.290,83.424 287.288,83.732 287.543 C 84.039 287.798,84.192 288.476,84.093 289.145 C 84.000 289.783,84.120 290.427,84.362 290.576 C 84.603 290.725,84.800 291.111,84.800 291.432 C 84.800 292.207,89.013 296.400,89.791 296.400 C 90.126 296.400,90.400 296.580,90.400 296.800 C 90.400 297.020,90.760 297.200,91.200 297.200 C 91.640 297.200,92.000 297.379,92.000 297.597 C 92.000 297.859,128.793 297.996,200.000 297.999 C 271.993 298.001,308.000 297.869,308.000 297.601 C 308.000 297.381,308.371 297.200,308.824 297.200 C 309.277 297.200,309.536 297.020,309.400 296.800 C 309.264 296.580,309.516 296.400,309.961 296.400 C 310.885 296.400,314.121 293.320,313.779 292.766 C 313.655 292.565,313.923 292.400,314.376 292.400 C 314.829 292.400,315.200 292.209,315.200 291.976 C 315.200 291.743,314.975 291.682,314.700 291.841 C 314.425 291.999,314.605 291.683,315.100 291.139 C 315.691 290.488,316.000 289.643,316.000 288.674 C 316.000 287.863,316.180 287.200,316.400 287.200 C 316.620 287.200,316.800 286.311,316.800 285.224 C 316.800 284.137,316.980 283.136,317.200 283.000 C 317.420 282.864,317.600 281.784,317.600 280.600 C 317.600 279.416,317.754 278.352,317.943 278.235 C 318.132 278.119,318.295 276.914,318.307 275.558 C 318.318 274.202,318.498 272.982,318.708 272.846 C 318.917 272.711,319.120 271.350,319.160 269.822 C 319.199 268.294,319.402 266.839,319.610 266.588 C 319.818 266.337,319.974 264.728,319.957 263.013 C 319.939 261.297,320.100 259.783,320.314 259.647 C 320.531 259.510,320.714 257.220,320.725 254.500 L 320.747 249.600 199.993 249.600 L 79.240 249.600 79.235 253.686 M94.800 328.600 C 94.800 334.067,94.946 337.200,95.200 337.200 C 95.420 337.200,95.600 337.560,95.600 338.000 C 95.600 338.440,95.780 338.800,96.000 338.800 C 96.220 338.800,96.400 339.042,96.400 339.338 C 96.400 339.985,97.754 341.285,98.132 341.001 C 98.280 340.890,98.321 340.909,98.224 341.042 C 97.949 341.422,99.892 343.200,100.582 343.200 C 100.922 343.200,101.200 343.380,101.200 343.600 C 101.200 343.820,101.560 344.000,102.000 344.000 C 102.440 344.000,102.800 344.180,102.800 344.400 C 102.800 344.664,116.600 344.800,143.400 344.800 C 170.200 344.800,184.000 344.664,184.000 344.400 C 184.000 344.180,184.360 344.000,184.800 344.000 C 185.240 344.000,185.600 343.820,185.600 343.600 C 185.600 343.380,185.960 343.200,186.400 343.200 C 186.880 343.200,187.200 342.933,187.200 342.533 C 187.200 342.167,187.308 341.975,187.440 342.107 C 187.786 342.453,190.446 339.937,190.274 339.427 C 190.195 339.192,190.416 338.790,190.765 338.533 C 191.306 338.135,191.419 336.722,191.528 329.033 L 191.656 320.000 143.228 320.000 L 94.800 320.000 94.800 328.600 M208.509 329.033 C 208.590 337.078,208.676 338.120,209.294 338.572 C 209.675 338.851,209.862 339.205,209.708 339.359 C 209.335 339.732,213.029 343.200,213.799 343.200 C 214.129 343.200,214.400 343.380,214.400 343.600 C 214.400 343.820,214.760 344.000,215.200 344.000 C 215.640 344.000,216.000 344.180,216.000 344.400 C 216.000 344.664,229.800 344.800,256.600 344.800 C 283.400 344.800,297.200 344.664,297.200 344.400 C 297.200 344.180,297.560 344.000,298.000 344.000 C 298.440 344.000,298.800 343.820,298.800 343.600 C 298.800 343.380,299.078 343.200,299.418 343.200 C 299.974 343.200,300.449 342.834,302.900 340.521 C 303.285 340.157,303.600 339.622,303.600 339.330 C 303.600 339.039,303.780 338.800,304.000 338.800 C 304.220 338.800,304.400 338.440,304.400 338.000 C 304.400 337.560,304.575 337.200,304.788 337.200 C 305.028 337.200,305.173 333.900,305.167 328.600 L 305.157 320.000 256.787 320.000 L 208.418 320.000 208.509 329.033 M106.000 379.700 C 106.000 387.900,106.142 392.400,106.400 392.400 C 106.620 392.400,106.800 392.738,106.800 393.151 C 106.800 393.564,107.074 394.130,107.410 394.408 C 107.745 394.686,107.936 394.998,107.834 395.100 C 107.633 395.300,107.795 395.526,109.559 397.500 C 110.198 398.215,110.994 398.800,111.327 398.800 C 111.661 398.800,112.008 399.025,112.100 399.300 C 112.231 399.694,118.849 399.800,143.400 399.800 C 167.951 399.800,174.569 399.694,174.700 399.300 C 174.792 399.025,175.046 398.800,175.265 398.800 C 175.966 398.800,178.815 395.549,178.538 395.065 C 178.392 394.809,178.418 394.732,178.596 394.894 C 179.055 395.309,179.972 393.979,179.987 392.876 C 179.994 392.365,180.178 392.063,180.400 392.200 C 180.663 392.363,180.800 388.104,180.800 379.724 L 180.800 367.000 143.400 367.000 L 106.000 367.000 106.000 379.700 M219.200 379.700 C 219.200 386.685,219.341 392.400,219.512 392.400 C 219.778 392.400,220.500 393.895,220.722 394.905 C 220.878 395.612,224.315 398.671,225.681 399.318 C 227.597 400.226,287.598 400.208,287.900 399.300 C 287.992 399.025,288.330 398.800,288.652 398.800 C 289.335 398.800,290.920 397.307,291.307 396.299 C 291.454 395.915,291.771 395.600,292.011 395.600 C 292.251 395.600,292.349 395.440,292.228 395.245 C 292.107 395.050,292.277 394.668,292.604 394.396 C 292.932 394.124,293.200 393.564,293.200 393.151 C 293.200 392.738,293.380 392.400,293.600 392.400 C 293.858 392.400,294.000 387.900,294.000 379.700 L 294.000 367.000 256.600 367.000 L 219.200 367.000 219.200 379.700 " stroke="none" fill="#1c6cf4" fill-rule="evenodd"></path><path id="path1" d="M343.331 211.400 C 343.333 212.940,343.405 213.521,343.492 212.691 C 343.579 211.861,343.577 210.601,343.489 209.891 C 343.400 209.181,343.329 209.860,343.331 211.400 M0.000 216.400 C 0.000 216.663,9.541 216.800,27.824 216.800 C 46.271 216.800,55.564 216.665,55.400 216.400 C 55.239 216.140,45.529 216.000,27.576 216.000 C 9.459 216.000,0.000 216.137,0.000 216.400 M344.600 216.400 C 344.436 216.665,353.729 216.800,372.176 216.800 C 390.459 216.800,400.000 216.663,400.000 216.400 C 400.000 216.137,390.541 216.000,372.424 216.000 C 354.471 216.000,344.761 216.140,344.600 216.400 M321.314 220.600 C 321.317 221.700,321.395 222.103,321.487 221.495 C 321.579 220.886,321.577 219.986,321.482 219.495 C 321.387 219.003,321.311 219.500,321.314 220.600 M343.328 242.800 C 343.328 244.230,343.401 244.815,343.489 244.100 C 343.578 243.385,343.578 242.215,343.489 241.500 C 343.401 240.785,343.328 241.370,343.328 242.800 M342.306 258.700 C 342.210 259.745,342.282 260.771,342.466 260.980 C 342.650 261.189,342.800 260.336,342.800 259.080 C 342.800 256.307,342.544 256.110,342.306 258.700 M125.070 367.100 C 135.008 367.159,151.388 367.159,161.470 367.100 C 171.551 367.040,163.420 366.992,143.400 366.992 C 123.380 366.992,115.131 367.040,125.070 367.100 M238.700 367.100 C 248.655 367.159,264.945 367.159,274.900 367.100 C 284.855 367.040,276.710 366.992,256.800 366.992 C 236.890 366.992,228.745 367.040,238.700 367.100 " stroke="none" fill="#206cf4" fill-rule="evenodd"></path><path id="path2" d="M343.331 211.400 C 343.333 212.940,343.405 213.521,343.492 212.691 C 343.579 211.861,343.577 210.601,343.489 209.891 C 343.400 209.181,343.329 209.860,343.331 211.400 M0.000 216.400 C 0.000 216.663,9.541 216.800,27.824 216.800 C 46.271 216.800,55.564 216.665,55.400 216.400 C 55.239 216.140,45.529 216.000,27.576 216.000 C 9.459 216.000,0.000 216.137,0.000 216.400 M344.600 216.400 C 344.436 216.665,353.729 216.800,372.176 216.800 C 390.459 216.800,400.000 216.663,400.000 216.400 C 400.000 216.137,390.541 216.000,372.424 216.000 C 354.471 216.000,344.761 216.140,344.600 216.400 M321.314 220.600 C 321.317 221.700,321.395 222.103,321.487 221.495 C 321.579 220.886,321.577 219.986,321.482 219.495 C 321.387 219.003,321.311 219.500,321.314 220.600 M343.328 242.800 C 343.328 244.230,343.401 244.815,343.489 244.100 C 343.578 243.385,343.578 242.215,343.489 241.500 C 343.401 240.785,343.328 241.370,343.328 242.800 M342.306 258.700 C 342.210 259.745,342.282 260.771,342.466 260.980 C 342.650 261.189,342.800 260.336,342.800 259.080 C 342.800 256.307,342.544 256.110,342.306 258.700 M125.070 367.100 C 135.008 367.159,151.388 367.159,161.470 367.100 C 171.551 367.040,163.420 366.992,143.400 366.992 C 123.380 366.992,115.131 367.040,125.070 367.100 M238.700 367.100 C 248.655 367.159,264.945 367.159,274.900 367.100 C 284.855 367.040,276.710 366.992,256.800 366.992 C 236.890 366.992,228.745 367.040,238.700 367.100 " stroke="none" fill="#206cf4" fill-rule="evenodd"></path><path id="path3" d="M343.331 211.400 C 343.333 212.940,343.405 213.521,343.492 212.691 C 343.579 211.861,343.577 210.601,343.489 209.891 C 343.400 209.181,343.329 209.860,343.331 211.400 M0.000 216.400 C 0.000 216.663,9.541 216.800,27.824 216.800 C 46.271 216.800,55.564 216.665,55.400 216.400 C 55.239 216.140,45.529 216.000,27.576 216.000 C 9.459 216.000,0.000 216.137,0.000 216.400 M344.600 216.400 C 344.436 216.665,353.729 216.800,372.176 216.800 C 390.459 216.800,400.000 216.663,400.000 216.400 C 400.000 216.137,390.541 216.000,372.424 216.000 C 354.471 216.000,344.761 216.140,344.600 216.400 M321.314 220.600 C 321.317 221.700,321.395 222.103,321.487 221.495 C 321.579 220.886,321.577 219.986,321.482 219.495 C 321.387 219.003,321.311 219.500,321.314 220.600 M343.328 242.800 C 343.328 244.230,343.401 244.815,343.489 244.100 C 343.578 243.385,343.578 242.215,343.489 241.500 C 343.401 240.785,343.328 241.370,343.328 242.800 M342.306 258.700 C 342.210 259.745,342.282 260.771,342.466 260.980 C 342.650 261.189,342.800 260.336,342.800 259.080 C 342.800 256.307,342.544 256.110,342.306 258.700 M125.070 367.100 C 135.008 367.159,151.388 367.159,161.470 367.100 C 171.551 367.040,163.420 366.992,143.400 366.992 C 123.380 366.992,115.131 367.040,125.070 367.100 M238.700 367.100 C 248.655 367.159,264.945 367.159,274.900 367.100 C 284.855 367.040,276.710 366.992,256.800 366.992 C 236.890 366.992,228.745 367.040,238.700 367.100 " stroke="none" fill="#206cf4" fill-rule="evenodd"></path><path id="path4" d="M343.331 211.400 C 343.333 212.940,343.405 213.521,343.492 212.691 C 343.579 211.861,343.577 210.601,343.489 209.891 C 343.400 209.181,343.329 209.860,343.331 211.400 M0.000 216.400 C 0.000 216.663,9.541 216.800,27.824 216.800 C 46.271 216.800,55.564 216.665,55.400 216.400 C 55.239 216.140,45.529 216.000,27.576 216.000 C 9.459 216.000,0.000 216.137,0.000 216.400 M344.600 216.400 C 344.436 216.665,353.729 216.800,372.176 216.800 C 390.459 216.800,400.000 216.663,400.000 216.400 C 400.000 216.137,390.541 216.000,372.424 216.000 C 354.471 216.000,344.761 216.140,344.600 216.400 M321.314 220.600 C 321.317 221.700,321.395 222.103,321.487 221.495 C 321.579 220.886,321.577 219.986,321.482 219.495 C 321.387 219.003,321.311 219.500,321.314 220.600 M343.328 242.800 C 343.328 244.230,343.401 244.815,343.489 244.100 C 343.578 243.385,343.578 242.215,343.489 241.500 C 343.401 240.785,343.328 241.370,343.328 242.800 M342.306 258.700 C 342.210 259.745,342.282 260.771,342.466 260.980 C 342.650 261.189,342.800 260.336,342.800 259.080 C 342.800 256.307,342.544 256.110,342.306 258.700 M125.070 367.100 C 135.008 367.159,151.388 367.159,161.470 367.100 C 171.551 367.040,163.420 366.992,143.400 366.992 C 123.380 366.992,115.131 367.040,125.070 367.100 M238.700 367.100 C 248.655 367.159,264.945 367.159,274.900 367.100 C 284.855 367.040,276.710 366.992,256.800 366.992 C 236.890 366.992,228.745 367.040,238.700 367.100 " stroke="none" fill="#206cf4" fill-rule="evenodd"></path></g></svg>